# xmcd
#
# Track frame offsets:
#	150
#	15525
#	26433
#	37475
#	51216
#	63133
#	75003
#	85938
#	98789
#	111594
#	120244
#	137385
#	152871
#	165584
#
# Disc length: 2376 seconds
#
# Revision: 1
# Processed by: cddbd v1.5.1PL0 Copyright (c) Steve Scherf et al.
# Submitted via: audiograbber 1.83.01
#
DISCID=a309460e
DTITLE=Stan J Hunt - Sea Of Heartbreak
DYEAR=2000
DGENRE=Country
TTITLE0=She's Got The Goldmine
TTITLE1=You Ain't Much Fun
TTITLE2=Too Gone Too Long
TTITLE3=Is It Still Over
TTITLE4=I Take A Lot Of Pride
TTITLE5=Fourteen Caret Mind
TTITLE6=Your My Best Friend
TTITLE7=Lets Chase Each Other
TTITLE8=Sea Of Heartbreak
TTITLE9=Blue Blue Day
TTITLE10=I'll Go On Loving You
TTITLE11=Tight Fittin' Jeans
TTITLE12=I Just Wanna Dance With You
TTITLE13=Four Walls
EXTD=
EXTT0=
EXTT1=
EXTT2=
EXTT3=
EXTT4=
EXTT5=
EXTT6=
EXTT7=
EXTT8=
EXTT9=
EXTT10=
EXTT11=
EXTT12=
EXTT13=
PLAYORDER=
